PathFileType	4	(X/Y/Z)	D:\TRACE\spotREDO_2-26-24\spot_justBody_Motion_3_4-platform.trc
DataRate	CameraRate	NumFrames	NumMarkers	Units	OrigDataRate	OrigDataStartFrame	OrigNumFrames
100.00	100.00	      48	5	mm	100.00	1	      7000
Frame#	Time	Left_Front			Right_Front			Left_Aft			Right_Aft			Post			
		X1	Y1	Z1	X2	Y2	Z2	X3	Y3	Z3	X4	Y4	Z4	X5	Y5	Z5	

1	0.000	-736.46948	99.39122	-539.19501	678.50879	94.06688	-455.27988	-807.04242	-108.00816	662.12646	763.65460	-101.29140	665.54504	-27.15052	789.03448	-828.37726	
2	0.010	-736.49567	99.43058	-539.19617	678.52521	94.08697	-455.28745	-807.00391	-108.00873	662.09558	763.65552	-101.27129	665.56323	-27.24068	789.12952	-828.29443	
3	0.020	-736.51270	99.44538	-539.19482	678.53674	94.10089	-455.20740	-807.00311	-108.02979	662.03699	763.70032	-101.25276	665.60022	-27.24919	789.26410	-828.26593	
4	0.030	-736.49615	99.46235	-539.20142	678.50201	94.13328	-455.23972	-807.05249	-107.94884	662.07172	763.62891	-101.21513	665.58832	-27.24597	789.27069	-828.25391	
5	0.040	-736.49487	99.42213	-539.21674	678.55939	94.07958	-455.24942	-807.03491	-107.98386	662.09918	763.64008	-101.25255	665.59540	-27.24942	789.16687	-828.25269	
6	0.050	-736.53925	99.45893	-539.21002	678.47382	94.06756	-455.31705	-807.04712	-107.96976	662.10291	763.63696	-101.27396	665.54315	-27.23685	789.13013	-828.26422	
7	0.060	-736.48639	99.37805	-539.20081	678.51978	94.08503	-455.28162	-807.02124	-108.00838	662.08728	763.62292	-101.24827	665.59424	-27.24439	789.11761	-828.28479	
8	0.070	-736.49652	99.46742	-539.18945	678.51569	94.12235	-455.23779	-807.02191	-107.95631	662.06171	763.61450	-101.20509	665.57837	-27.32277	789.18896	-828.27563	
9	0.080	-736.53845	99.47393	-539.20892	678.52856	94.09586	-455.25919	-807.00201	-107.94524	662.05109	763.62366	-101.18833	665.62744	-27.31245	789.20697	-828.32471	
10	0.090	-736.53839	99.51344	-539.23108	678.52618	94.06863	-455.32013	-806.98962	-107.92297	662.02814	763.64819	-101.23772	665.62482	-27.23184	789.20337	-828.41309	
11	0.100	-736.52905	99.52814	-539.23779	678.53687	94.10011	-455.26523	-807.02325	-107.93517	662.07831	763.63196	-101.29588	665.56366	-27.25906	789.17078	-828.45703	
12	0.110	-736.50745	99.50485	-539.22534	678.54279	94.08094	-455.29529	-807.00220	-108.00581	662.05530	763.60870	-101.32178	665.52545	-27.20502	789.17859	-828.48242	
13	0.120	-736.51056	99.48410	-539.20648	678.52179	94.13516	-455.26074	-807.04248	-107.98995	662.09503	763.60956	-101.27254	665.55499	-27.26306	789.21857	-828.46118	
14	0.130	-736.49811	99.43997	-539.20898	678.49982	94.12321	-455.29987	-807.25867	-107.35770	661.84924	763.60925	-101.20521	665.58673	-27.17659	789.21429	-828.41351	
15	0.140	-736.47028	99.42694	-539.19910	678.55615	94.06317	-455.25510	-807.19647	-107.51614	661.89728	763.59271	-101.21345	665.60571	-26.98089	789.26251	-828.20972	
16	0.150	-736.45801	99.40567	-539.19910	678.48907	94.11328	-455.24344	-807.17694	-107.59067	662.06433	763.64984	-101.23717	665.60175	-27.10485	789.13641	-828.31238	
17	0.160	-736.47778	99.39767	-539.21088	678.49738	94.11596	-455.26566	-807.17365	-107.60679	662.05780	763.62659	-101.26333	665.56110	-27.15010	789.11267	-828.24445	
18	0.170	-736.46942	99.36273	-539.19012	678.50415	94.09683	-455.24219	-807.14984	-107.72359	662.01172	763.62701	-101.27021	665.58081	-27.22003	789.10278	-828.24738	
19	0.180	-736.49506	99.41033	-539.19141	678.54108	94.08540	-455.24106	-807.09430	-107.88718	661.99512	763.59253	-101.21352	665.56781	-27.19112	789.14673	-828.23376	
20	0.190	-736.48920	99.42905	-539.18469	678.53687	94.07770	-455.28366	-807.07703	-107.87745	661.97510	763.61493	-101.23507	665.56970	-27.15944	789.17999	-828.29767	
21	0.200	-736.51630	99.42541	-539.19763	678.53552	94.09168	-455.28348	-807.04083	-107.91697	661.96423	763.62762	-101.19299	665.57294	-27.24992	789.22217	-828.28894	
22	0.210	-736.53192	99.45157	-539.18359	678.51459	94.09627	-455.30435	-807.08386	-107.95860	662.01337	763.62396	-101.24581	665.58124	-27.28053	789.20886	-828.33716	
23	0.220	-736.51666	99.45515	-539.22260	678.51129	94.08855	-455.30911	-807.04419	-107.99080	661.95270	763.61224	-101.27560	665.56897	-27.19755	789.19971	-828.38239	
24	0.230	-736.49994	99.46165	-539.20233	678.52808	94.11073	-455.28104	-806.97253	-107.98999	661.95709	763.65051	-101.26615	665.56317	-27.32969	789.21857	-828.39874	
25	0.240	-736.53491	99.49566	-539.21918	678.55658	94.08109	-455.21985	-806.99609	-108.00497	661.96411	763.64728	-101.22792	665.61725	-27.23793	789.16028	-828.44171	
26	0.250	-736.48193	99.44118	-539.21704	678.51392	94.07879	-455.28375	-806.99518	-108.00039	661.96350	763.63263	-101.19360	665.63049	-27.23682	789.24249	-828.39349	
27	0.260	-736.50757	99.43066	-539.20233	678.48816	94.10190	-455.28778	-807.01794	-108.03113	662.00665	763.59064	-101.20660	665.56921	-27.41341	789.21710	-828.34827	
28	0.270	-736.48682	99.42092	-539.20471	678.53918	94.09138	-455.24265	-807.03113	-108.04992	662.05310	763.64325	-101.25060	665.57697	-27.36138	789.15277	-828.27979	
29	0.280	-736.50061	99.42426	-539.23389	678.51111	94.09709	-455.30518	-807.01831	-108.10101	661.99194	763.62543	-101.26450	665.58240	-27.31634	789.16559	-828.29803	
30	0.290	-736.48096	99.43949	-539.20831	678.51282	94.05393	-455.30365	-807.04706	-107.99845	662.03394	763.63397	-101.25390	665.58276	-27.35206	789.20563	-828.24438	
31	0.300	-736.52039	99.49087	-539.18134	678.54718	94.05183	-455.26627	-806.99127	-108.00616	662.07007	763.63770	-101.23791	665.62720	-27.26473	789.19818	-828.26135	
32	0.310	-736.53961	99.47601	-539.18256	678.54456	94.12305	-455.19199	-807.00800	-108.02985	662.03595	763.65015	-101.21960	665.64020	-27.30999	789.19244	-828.21960	
33	0.320	-736.54138	99.45452	-539.21686	678.52527	94.10851	-455.28717	-807.01404	-108.04370	662.07397	763.62463	-101.23929	665.57880	-27.34707	789.18774	-828.22754	
34	0.330	-736.50897	99.43233	-539.19427	678.55334	94.07519	-455.24332	-807.00909	-108.08858	662.05994	763.64856	-101.26562	665.57953	-27.33370	789.20795	-828.27106	
35	0.340	-736.49396	99.46931	-539.20612	678.52954	94.08118	-455.29208	-807.00970	-108.03072	662.03198	763.66345	-101.26879	665.57306	-27.24338	789.17603	-828.29657	
36	0.350	-736.52966	99.47975	-539.20038	678.54852	94.09603	-455.20868	-806.99780	-108.07470	662.04358	763.60675	-101.25323	665.56580	-27.33584	789.20172	-828.30786	
37	0.360	-736.45093	99.40001	-539.16077	678.52509	94.08108	-455.30142	-807.00220	-108.05415	662.03021	763.62384	-101.20821	665.58362	-27.32367	789.21399	-828.35016	
38	0.370	-736.52789	99.43872	-539.19098	678.50842	94.10389	-455.26398	-807.01471	-108.03075	662.04376	763.62524	-101.21365	665.59760	-27.34543	789.16479	-828.37213	
39	0.380	-736.50555	99.38984	-539.20270	678.53192	94.08308	-455.24658	-807.04108	-108.00575	662.04846	763.63379	-101.22279	665.57227	-27.42863	789.16528	-828.36481	
40	0.390	-736.51910	99.44019	-539.21936	678.55200	94.07467	-455.27429	-806.99371	-108.03682	662.04034	763.62842	-101.25629	665.55646	-27.22493	789.17505	-828.29431	
41	0.400	-736.52783	99.52418	-539.22131	678.52557	94.11622	-455.25208	-806.99115	-108.01409	662.01422	763.64716	-101.24163	665.60693	-27.25685	789.15399	-828.36249	
42	0.410	-736.51624	99.44984	-539.21301	678.51300	94.09045	-455.24164	-807.00671	-107.99916	662.03693	763.64203	-101.23772	665.59888	-27.32841	789.19397	-828.31665	
43	0.420	-736.50360	99.46555	-539.21216	678.52332	94.08089	-455.26746	-807.01105	-107.97652	662.05188	763.58716	-101.20911	665.60016	-27.25498	789.20642	-828.31921	
44	0.430	-736.47711	99.40891	-539.18884	678.50665	94.12222	-455.24744	-806.99634	-108.04508	662.05823	763.62384	-101.25198	665.57849	-27.37725	789.21558	-828.24164	
45	0.440	-736.50317	99.46084	-539.20123	678.50580	94.10905	-455.27692	-807.04010	-108.06063	662.03876	763.63330	-101.25549	665.56543	-27.44615	789.26331	-828.23236	
46	0.450	-736.54041	99.48604	-539.22894	678.54242	94.07521	-455.28629	-806.97345	-108.00597	662.02209	763.58319	-101.25043	665.57507	-27.24282	789.17499	-828.28058	
47	0.460	-736.55719	99.49883	-539.20721	678.55048	94.08645	-455.25797	-806.98053	-108.00551	661.98108	763.60364	-101.24088	665.57562	-27.34445	789.17828	-828.24103	
48	0.470	-736.51343	99.47717	-539.20184	678.53851	94.07043	-455.25217	-807.00946	-108.02493	662.02075	763.58179	-101.21562	665.57025	-27.29144	789.17450	-828.24750	
